# xmcd
#
# Track frame offsets: 
#        225
#        10685
#        22700
#        35837
#        48810
#        61832
#        75210
#        86750
#        99482
#        111005
#        122950
#        136485
#        146042
#        159027
#
# Disc length: 2289 seconds
#
# Revision: 0
# Processed by: cddbd v1.5.1PL0 Copyright (c) Steve Scherf et al.
# Submitted via: ExactAudioCopy v0.95b2
#
DISCID=a308ee0e
DTITLE=Various Artist - Blame It On The Blues - From The Vaults Of Dootone
DYEAR=1900
DGENRE=Blues
TTITLE0=Willie Headen - Blame It On The Blues
TTITLE1=Roy Milton - Nothing Left
TTITLE2=Chuck Higgins - Don't You Know I Love You Baby
TTITLE3=Willie Headen - I Love You Bobby Sox
TTITLE4=Filmore Slim - I Want To Hold Your Hand
TTITLE5=Roy Milton - I Can't Go On
TTITLE6=Chuck Higgins - Lookin' For My Baby
TTITLE7=Roy Milton - Cry Some Baby
TTITLE8=Willie Headen - You Can Be Replaced
TTITLE9=Chuck Higgins - I Need Your Love
TTITLE10=Roy Milton - I Never Would Have Made It
TTITLE11=Chuck Higgins - Here I'm Is
TTITLE12=Willie Headen - Let Me Cry
TTITLE13=Filmore Slim - You've Got The Nerve Of A Brass Monkey
EXTD=
EXTT0=
EXTT1=
EXTT2=
EXTT3=
EXTT4=
EXTT5=
EXTT6=
EXTT7=
EXTT8=
EXTT9=
EXTT10=
EXTT11=
EXTT12=
EXTT13=
PLAYORDER=
